<mxfile host="65bd71144e">
    <diagram id="IaFl8y2P71Akh2U9kg0a" name="Page-1">
        <mxGraphModel dx="1264" dy="649" grid="1" gridSize="10" guides="1" tooltips="1" connect="1" arrows="1" fold="1" page="1" pageScale="1" pageWidth="850" pageHeight="1100" math="0" shadow="0">
            <root>
                <mxCell id="0"/>
                <mxCell id="1" parent="0"/>
                <mxCell id="36" value="" style="shape=ext;double=1;rounded=1;whiteSpace=wrap;html=1;" vertex="1" parent="1">
                    <mxGeometry x="402" y="80" width="90" height="140" as="geometry"/>
                </mxCell>
                <mxCell id="6" style="edgeStyle=none;html=1;" parent="1" source="3" edge="1">
                    <mxGeometry relative="1" as="geometry">
                        <mxPoint x="360" y="145" as="targetPoint"/>
                        <Array as="points">
                            <mxPoint x="220" y="145"/>
                            <mxPoint x="280" y="145"/>
                        </Array>
                    </mxGeometry>
                </mxCell>
                <mxCell id="3" value="Fichier Excel (statique)&lt;br&gt;contient les définitions des VMs" style="sketch=0;pointerEvents=1;shadow=0;dashed=0;html=1;strokeColor=none;fillColor=#505050;labelPosition=center;verticalLabelPosition=bottom;verticalAlign=top;outlineConnect=0;align=center;shape=mxgraph.office.services.excel_services;" parent="1" vertex="1">
                    <mxGeometry x="100" y="120" width="60" height="49" as="geometry"/>
                </mxCell>
                <mxCell id="4" value="GIT UPSTREAM" style="verticalLabelPosition=bottom;html=1;verticalAlign=top;align=center;strokeColor=none;fillColor=#00BEF2;shape=mxgraph.azure.git_repository;" parent="1" vertex="1">
                    <mxGeometry x="620" y="30" width="50" height="50" as="geometry"/>
                </mxCell>
                <mxCell id="54" value="" style="edgeStyle=none;html=1;" edge="1" parent="1" source="9" target="11">
                    <mxGeometry relative="1" as="geometry"/>
                </mxCell>
                <mxCell id="9" value="Début Pipeline Gitlab" style="text;strokeColor=default;align=center;fillColor=none;html=1;verticalAlign=middle;whiteSpace=wrap;rounded=0;fontColor=#FF8000;" parent="1" vertex="1">
                    <mxGeometry x="590" y="169" width="130" height="31" as="geometry"/>
                </mxCell>
                <mxCell id="19" style="edgeStyle=none;html=1;exitX=0.5;exitY=1;exitDx=0;exitDy=0;entryX=0.5;entryY=0;entryDx=0;entryDy=0;fontColor=#FFFFFF;" parent="1" source="11" target="15" edge="1">
                    <mxGeometry relative="1" as="geometry"/>
                </mxCell>
                <mxCell id="11" value="&lt;font color=&quot;#ffffff&quot;&gt;Conversion&amp;nbsp;&lt;br&gt;XLS -&amp;gt; CSV&lt;br&gt;&lt;/font&gt;" style="text;strokeColor=default;align=center;fillColor=default;html=1;verticalAlign=middle;whiteSpace=wrap;rounded=0;fontColor=#FF8000;" parent="1" vertex="1">
                    <mxGeometry x="615" y="280" width="80" height="38" as="geometry"/>
                </mxCell>
                <mxCell id="20" style="edgeStyle=none;html=1;exitX=0.5;exitY=1;exitDx=0;exitDy=0;entryX=0.5;entryY=0;entryDx=0;entryDy=0;fontColor=#FFFFFF;" parent="1" source="15" target="16" edge="1">
                    <mxGeometry relative="1" as="geometry"/>
                </mxCell>
                <mxCell id="15" value="&lt;font color=&quot;#ffffff&quot;&gt;Conversion&amp;nbsp;&lt;br&gt;CSV -&amp;gt; YML&lt;br&gt;&lt;/font&gt;" style="text;strokeColor=default;align=center;fillColor=default;html=1;verticalAlign=middle;whiteSpace=wrap;rounded=0;fontColor=#FF8000;" parent="1" vertex="1">
                    <mxGeometry x="615" y="370" width="80" height="38" as="geometry"/>
                </mxCell>
                <mxCell id="23" style="edgeStyle=none;html=1;exitX=0.5;exitY=1;exitDx=0;exitDy=0;fontColor=#FFFFFF;entryX=0.5;entryY=1;entryDx=0;entryDy=0;" parent="1" source="16" target="21" edge="1">
                    <mxGeometry relative="1" as="geometry">
                        <mxPoint x="645" y="532" as="targetPoint"/>
                        <Array as="points">
                            <mxPoint x="560" y="560"/>
                        </Array>
                    </mxGeometry>
                </mxCell>
                <mxCell id="16" value="&lt;font color=&quot;#ffffff&quot;&gt;Generation main.tf&lt;br&gt;&lt;/font&gt;" style="text;strokeColor=default;align=center;fillColor=default;html=1;verticalAlign=middle;whiteSpace=wrap;rounded=0;fontColor=#FF8000;" parent="1" vertex="1">
                    <mxGeometry x="615" y="470" width="80" height="38" as="geometry"/>
                </mxCell>
                <mxCell id="24" style="edgeStyle=none;html=1;exitX=0.5;exitY=0;exitDx=0;exitDy=0;fontColor=#FFFFFF;" parent="1" source="21" edge="1">
                    <mxGeometry relative="1" as="geometry">
                        <mxPoint x="485" y="428" as="targetPoint"/>
                    </mxGeometry>
                </mxCell>
                <mxCell id="21" value="&lt;font color=&quot;#ffffff&quot;&gt;Terraform Plan&lt;br&gt;&lt;/font&gt;" style="text;strokeColor=default;align=center;fillColor=default;html=1;verticalAlign=middle;whiteSpace=wrap;rounded=0;fontColor=#FF8000;" parent="1" vertex="1">
                    <mxGeometry x="445" y="468" width="80" height="38" as="geometry"/>
                </mxCell>
                <mxCell id="22" value="&lt;font color=&quot;#ffffff&quot;&gt;Terraform Apply&lt;br&gt;&lt;/font&gt;" style="text;strokeColor=default;align=center;fillColor=#CC00CC;html=1;verticalAlign=middle;whiteSpace=wrap;rounded=0;fontColor=#FF8000;" parent="1" vertex="1">
                    <mxGeometry x="445" y="388" width="80" height="38" as="geometry"/>
                </mxCell>
                <mxCell id="25" value="Fin Pipeline Gitlab" style="text;strokeColor=default;align=center;fillColor=none;html=1;verticalAlign=middle;whiteSpace=wrap;rounded=0;fontColor=#FF8000;" parent="1" vertex="1">
                    <mxGeometry x="420" y="338" width="130" height="31" as="geometry"/>
                </mxCell>
                <mxCell id="28" value="vmdefs.xls&lt;br&gt;&amp;nbsp;sur PC local" style="text;strokeColor=none;align=center;fillColor=none;html=1;verticalAlign=middle;whiteSpace=wrap;rounded=0;rotation=-90;" vertex="1" parent="1">
                    <mxGeometry x="40" y="100" width="60" height="30" as="geometry"/>
                </mxCell>
                <mxCell id="29" value="&lt;b&gt;/opt/iac/terraform&lt;/b&gt;" style="text;strokeColor=none;align=center;fillColor=none;html=1;verticalAlign=middle;whiteSpace=wrap;rounded=0;rotation=-90;" vertex="1" parent="1">
                    <mxGeometry x="282" y="124.5" width="210" height="30" as="geometry"/>
                </mxCell>
                <mxCell id="35" value="" style="html=1;verticalLabelPosition=bottom;align=center;labelBackgroundColor=#ffffff;verticalAlign=top;strokeWidth=2;strokeColor=#0080F0;shadow=0;dashed=0;shape=mxgraph.ios7.icons.folder;" vertex="1" parent="1">
                    <mxGeometry x="412" y="130" width="70" height="40" as="geometry"/>
                </mxCell>
                <mxCell id="37" value="rh-subman (172.17.20.146)&lt;br&gt;- gitlab runner -" style="text;strokeColor=none;align=center;fillColor=none;html=1;verticalAlign=middle;whiteSpace=wrap;rounded=0;" vertex="1" parent="1">
                    <mxGeometry x="402" y="230" width="100" height="30" as="geometry"/>
                </mxCell>
                <mxCell id="39" value="terraform" style="text;strokeColor=none;align=center;fillColor=none;html=1;verticalAlign=middle;whiteSpace=wrap;rounded=0;" vertex="1" parent="1">
                    <mxGeometry x="420" y="144" width="51" height="20" as="geometry"/>
                </mxCell>
                <mxCell id="43" value="SFTP" style="text;strokeColor=none;align=center;fillColor=none;html=1;verticalAlign=middle;whiteSpace=wrap;rounded=0;" vertex="1" parent="1">
                    <mxGeometry x="220" y="124.5" width="60" height="30" as="geometry"/>
                </mxCell>
                <mxCell id="44" value="lab" style="aspect=fixed;html=1;points=[];align=center;image;fontSize=12;image=img/lib/azure2/general/Branch.svg;" vertex="1" parent="1">
                    <mxGeometry x="545" y="107.5" width="30" height="30" as="geometry"/>
                </mxCell>
                <mxCell id="48" value="dev" style="aspect=fixed;html=1;points=[];align=center;image;fontSize=12;image=img/lib/azure2/general/Branch.svg;" vertex="1" parent="1">
                    <mxGeometry x="605" y="107.5" width="30" height="30" as="geometry"/>
                </mxCell>
                <mxCell id="49" value="rec" style="aspect=fixed;html=1;points=[];align=center;image;fontSize=12;image=img/lib/azure2/general/Branch.svg;" vertex="1" parent="1">
                    <mxGeometry x="665" y="105" width="30" height="30" as="geometry"/>
                </mxCell>
                <mxCell id="50" value="prod" style="aspect=fixed;html=1;points=[];align=center;image;fontSize=12;image=img/lib/azure2/general/Branch.svg;" vertex="1" parent="1">
                    <mxGeometry x="725" y="105" width="30" height="30" as="geometry"/>
                </mxCell>
                <mxCell id="58" value="- VM créé&lt;br&gt;- OS installé&lt;br&gt;- CIS appliqué&lt;br&gt;- Enrôlement Satellite&lt;br&gt;- Enrôlement IDM&lt;br&gt;- Monitoring" style="text;strokeColor=none;align=left;fillColor=none;html=1;verticalAlign=middle;whiteSpace=wrap;rounded=0;" vertex="1" parent="1">
                    <mxGeometry x="297" y="280" width="128" height="130" as="geometry"/>
                </mxCell>
            </root>
        </mxGraphModel>
    </diagram>
</mxfile>